# xmcd
#
# Track frame offsets:
#	150
#	12890
#	27600
#	43018
#	62950
#	77488
#	91320
#	104973
#	118690
#	134858
#	150228
#
# Disc length: 2235 seconds
#
# Revision: 2
# Processed by: cddbd v1.5.2PL0 Copyright (c) Steve Scherf et al.
# Submitted via: audiograbber 1.83.01
#
DISCID=9508b90b
DTITLE=Tom Astor - Tom Astor - Contry-und Western Hits deutscg
DYEAR=1900
DGENRE=
TTITLE0=Wer hatt ein Herz das nie bricht
TTITLE1=Sie ist jung und ich ein Mann, der viel erlebt
TTITLE2=Hier geht mein Weg zu Ende
TTITLE3=Der Feigling des Jahrhunderts
TTITLE4=Disco Western Rodeo
TTITLE5=Tom Dooley
TTITLE6=Die Frau mit dem Gurt
TTITLE7=Ein Mann der Nacht
TTITLE8=Angie
TTITLE9=Und in Hamburg sitzt Gabie - Hank Stone
TTITLE10=Blau Blumen - Hank Stone
EXTD=
EXTT0=
EXTT1=
EXTT2=
EXTT3=
EXTT4=
EXTT5=
EXTT6=
EXTT7=
EXTT8=
EXTT9=
EXTT10=
PLAYORDER=
